This XML file does not appear to have any style information associated with it. The document tree is shown below.
<mxfile host="app.diagrams.net" modified="2024-02-29T07:01:27.178Z" agent="Mozilla/5.0 (Windows NT 10.0; Win64; x64) AppleWebKit/537.36 (KHTML, like Gecko) Chrome/120.0.0.0 YaBrowser/24.1.0.0 Safari/537.36" etag="aQvTJLdq1A7YCGTvI3qb" version="23.1.8" type="device">
<diagram name="Page-1" id="b5b7bab2-c9e2-2cf4-8b2a-24fd1a2a6d21">
<mxGraphModel dx="11161" dy="6059" grid="1" gridSize="10" guides="1" tooltips="1" connect="1" arrows="1" fold="1" page="1" pageScale="1" pageWidth="827" pageHeight="1169" background="none" math="0" shadow="0">
<root>
<mxCell id="0"/>
<mxCell id="1" parent="0"/>
<mxCell id="-3Om5Twb0YCuTLOiDZB2-11" value="" style="rounded=0;whiteSpace=wrap;html=1;dashed=1;dashPattern=12 12;" parent="1" vertex="1">
<mxGeometry x="-1445" y="1440" width="1895" height="1580" as="geometry"/>
</mxCell>
<mxCell id="ejbdm7QBQYjt1qYfrLMg-126" value="" style="ellipse;whiteSpace=wrap;html=1;fillColor=#dae8fc;strokeColor=#6c8ebf;" parent="1" vertex="1">
<mxGeometry x="-1150" y="2480" width="890" height="470" as="geometry"/>
</mxCell>
<mxCell id="MaOl4jfl0PFDX4A6IsZu-60" value="" style="rounded=1;whiteSpace=wrap;html=1;fontStyle=1" parent="1" vertex="1">
<mxGeometry x="-436.13" y="330" width="310" height="300" as="geometry"/>
</mxCell>
<mxCell id="-3Om5Twb0YCuTLOiDZB2-9" value="" style="rounded=0;whiteSpace=wrap;html=1;dashed=1;dashPattern=12 12;" parent="1" vertex="1">
<mxGeometry x="-1139.25" y="730" width="999.25" height="690" as="geometry"/>
</mxCell>
<mxCell id="IY_3jIdmcAkdkIJxxCQ0-17" value="<b style="font-weight:normal;" id="docs-internal-guid-5b36b442-7fff-c8b9-8f83-1f48a23372ef"><img width="203px;" height="234px;" src="https://lh7-us.googleusercontent.com/JxQBm1-EpwM_dFHXwClX45VhrDido1cOvyLPQnoqPaI8YXl2qh07tTlEx8l0MKRIusiFAP7jSpTK8y7_XbA77AthvYhiPHg3ViRl7vc-WYO56VqhmxlTWo8SbmznH5HDqeRaKHJ4aV-dhPcUNcOod0d_ZQ=s2048"></b>" style="text;whiteSpace=wrap;html=1;" parent="1" vertex="1">
<mxGeometry x="-1540" y="960" width="240" height="260" as="geometry"/>
</mxCell>
<mxCell id="IY_3jIdmcAkdkIJxxCQ0-19" value="" style="rounded=1;whiteSpace=wrap;html=1;arcSize=39;fillColor=#1e4074;fontColor=#ffffff;strokeColor=default;strokeWidth=0;" parent="1" vertex="1">
<mxGeometry x="-910" y="820" width="200" height="110" as="geometry"/>
</mxCell>
<mxCell id="IY_3jIdmcAkdkIJxxCQ0-21" value="" style="ellipse;whiteSpace=wrap;html=1;aspect=fixed;fillColor=#1e4074;strokeColor=default;strokeWidth=0;" parent="1" vertex="1">
<mxGeometry x="-850" y="760" width="80" height="80" as="geometry"/>
</mxCell>
<mxCell id="IY_3jIdmcAkdkIJxxCQ0-22" value="" style="rounded=1;whiteSpace=wrap;html=1;arcSize=39;fillColor=#1e4074;fontColor=#ffffff;strokeColor=default;strokeWidth=0;" parent="1" vertex="1">
<mxGeometry x="-541.5" y="820" width="200" height="110" as="geometry"/>
</mxCell>
<mxCell id="IY_3jIdmcAkdkIJxxCQ0-23" value="" style="ellipse;whiteSpace=wrap;html=1;aspect=fixed;fillColor=#1e4074;strokeColor=default;strokeWidth=0;" parent="1" vertex="1">
<mxGeometry x="-481.5" y="760" width="80" height="80" as="geometry"/>
</mxCell>
<mxCell id="IY_3jIdmcAkdkIJxxCQ0-24" value="<font color="#ffffff"><b><font style="font-size: 14px;">Абитуриент</font></b><br>[Person]</font>" style="text;html=1;align=center;verticalAlign=middle;whiteSpace=wrap;rounded=0;" parent="1" vertex="1">
<mxGeometry x="-840" y="840" width="60" height="30" as="geometry"/>
</mxCell>
<mxCell id="IY_3jIdmcAkdkIJxxCQ0-25" value="<font color="#ffffff"><span style="font-size: 14px;"><b>Менеджер</b></span><br>[Person]</font>" style="text;html=1;align=center;verticalAlign=middle;whiteSpace=wrap;rounded=0;" parent="1" vertex="1">
<mxGeometry x="-471.5" y="840" width="60" height="30" as="geometry"/>
</mxCell>
<mxCell id="IY_3jIdmcAkdkIJxxCQ0-27" value="<font color="#cccccc">Абитуриент, который выбирает программу для поступления<br></font>" style="text;html=1;align=center;verticalAlign=middle;whiteSpace=wrap;rounded=0;" parent="1" vertex="1">
<mxGeometry x="-900" y="890" width="180" height="30" as="geometry"/>
</mxCell>
<mxCell id="IY_3jIdmcAkdkIJxxCQ0-28" value="<font color="#cccccc">Менеджер, который рассматривает заявки абитуриентов<br></font>" style="text;html=1;align=center;verticalAlign=middle;whiteSpace=wrap;rounded=0;" parent="1" vertex="1">
<mxGeometry x="-536.5" y="890" width="190" height="30" as="geometry"/>
</mxCell>
<mxCell id="IY_3jIdmcAkdkIJxxCQ0-29" value="" style="rounded=1;whiteSpace=wrap;html=1;fillColor=#3162af;strokeColor=default;strokeWidth=0;" parent="1" vertex="1">
<mxGeometry x="-740" y="1080" width="250" height="140" as="geometry"/>
</mxCell>
<mxCell id="IY_3jIdmcAkdkIJxxCQ0-30" value="<font color="#ffffff"><b><font style="font-size: 14px;">Abiturient.tsu</font></b><br>[Software system]</font>" style="text;html=1;align=center;verticalAlign=middle;whiteSpace=wrap;rounded=0;" parent="1" vertex="1">
<mxGeometry x="-665" y="1090" width="110" height="30" as="geometry"/>
</mxCell>
<mxCell id="IY_3jIdmcAkdkIJxxCQ0-31" value="<font color="#cccccc">Позволяет облегчить работу приемной комиссии, храня в себе данные о всех абитуриентах, позволяя абитуриенту написать заявление самостоятельно<br></font>" style="text;html=1;align=center;verticalAlign=middle;whiteSpace=wrap;rounded=0;" parent="1" vertex="1">
<mxGeometry x="-740" y="1169" width="250" height="30" as="geometry"/>
</mxCell>
<mxCell id="IY_3jIdmcAkdkIJxxCQ0-32" style="edgeStyle=orthogonalEdgeStyle;rounded=0;orthogonalLoop=1;jettySize=auto;html=1;entryX=0;entryY=0.571;entryDx=0;entryDy=0;entryPerimeter=0;fontColor=#CCCCCC;strokeColor=#808080;endSize=12;endArrow=blockThin;endFill=1;exitX=0.5;exitY=1;exitDx=0;exitDy=0;dashed=1;dashPattern=12 12;" parent="1" source="IY_3jIdmcAkdkIJxxCQ0-19" target="IY_3jIdmcAkdkIJxxCQ0-29" edge="1">
<mxGeometry relative="1" as="geometry"/>
</mxCell>
<mxCell id="IY_3jIdmcAkdkIJxxCQ0-34" value="<font style="font-size: 12px;">Просматривает информацию о существующих<br>&nbsp;факультетах и программах для поступления,<br>&nbsp;выбирает,<br>&nbsp;составляет заявление с указанием приоритетов</font>" style="edgeLabel;html=1;align=center;verticalAlign=middle;resizable=0;points=[];" parent="IY_3jIdmcAkdkIJxxCQ0-32" vertex="1" connectable="0">
<mxGeometry x="-0.399" y="-2" relative="1" as="geometry">
<mxPoint x="2" as="offset"/>
</mxGeometry>
</mxCell>
<mxCell id="IY_3jIdmcAkdkIJxxCQ0-33" style="edgeStyle=orthogonalEdgeStyle;rounded=0;orthogonalLoop=1;jettySize=auto;html=1;fontColor=#CCCCCC;strokeColor=#808080;endSize=12;endArrow=blockThin;endFill=1;dashed=1;dashPattern=12 12;" parent="1" source="IY_3jIdmcAkdkIJxxCQ0-22" target="IY_3jIdmcAkdkIJxxCQ0-29" edge="1">
<mxGeometry relative="1" as="geometry">
<mxPoint x="-800" y="940" as="sourcePoint"/>
<mxPoint x="-730" y="1170" as="targetPoint"/>
<Array as="points">
<mxPoint x="-440" y="1160"/>
</Array>
</mxGeometry>
</mxCell>
<mxCell id="IY_3jIdmcAkdkIJxxCQ0-36" value="<font style="font-size: 12px;">Просматривает заявления абитуриентов,<br>изменяет статус заявлений,<br>управляет факультетом в рамках данной системы,<br>&nbsp;к примеру, изменяет данные о факультете</font><span id="docs-internal-guid-e454aada-7fff-a660-4d41-49e8ba70c987"></span><span id="docs-internal-guid-e454aada-7fff-a660-4d41-49e8ba70c987"></span>" style="edgeLabel;html=1;align=center;verticalAlign=middle;resizable=0;points=[];" parent="IY_3jIdmcAkdkIJxxCQ0-33" vertex="1" connectable="0">
<mxGeometry x="-0.3802" y="-4" relative="1" as="geometry">
<mxPoint as="offset"/>
</mxGeometry>
</mxCell>
<mxCell id="-3Om5Twb0YCuTLOiDZB2-1" value="" style="rounded=1;whiteSpace=wrap;html=1;fillColor=#8b8496;strokeColor=default;strokeWidth=0;" parent="1" vertex="1">
<mxGeometry x="-740" y="1290" width="250" height="110" as="geometry"/>
</mxCell>
<mxCell id="-3Om5Twb0YCuTLOiDZB2-2" value="<font color="#ffffff"><span style="font-size: 14px;"><b>Email system<br></b></span>[Software system]</font>" style="text;html=1;align=center;verticalAlign=middle;whiteSpace=wrap;rounded=0;" parent="1" vertex="1">
<mxGeometry x="-665" y="1310" width="110" height="30" as="geometry"/>
</mxCell>
<mxCell id="-3Om5Twb0YCuTLOiDZB2-3" value="<font color="#cccccc">Почтовая система Microsoft Exchange<br></font>" style="text;html=1;align=center;verticalAlign=middle;whiteSpace=wrap;rounded=0;" parent="1" vertex="1">
<mxGeometry x="-740" y="1360" width="250" height="30" as="geometry"/>
</mxCell>
<mxCell id="-3Om5Twb0YCuTLOiDZB2-4" style="edgeStyle=orthogonalEdgeStyle;rounded=0;orthogonalLoop=1;jettySize=auto;html=1;entryX=0.5;entryY=0;entryDx=0;entryDy=0;fontColor=#CCCCCC;strokeColor=#808080;endSize=12;endArrow=blockThin;endFill=1;dashed=1;dashPattern=12 12;" parent="1" source="IY_3jIdmcAkdkIJxxCQ0-29" target="-3Om5Twb0YCuTLOiDZB2-1" edge="1">
<mxGeometry relative="1" as="geometry">
<mxPoint x="-800" y="940" as="sourcePoint"/>
<mxPoint x="-730" y="1170" as="targetPoint"/>
</mxGeometry>
</mxCell>
<mxCell id="-3Om5Twb0YCuTLOiDZB2-5" value="<span style="font-size: 12px;">Отправляет уведомления с помощью</span>" style="edgeLabel;html=1;align=center;verticalAlign=middle;resizable=0;points=[];" parent="-3Om5Twb0YCuTLOiDZB2-4" vertex="1" connectable="0">
<mxGeometry x="-0.399" y="-2" relative="1" as="geometry">
<mxPoint x="2" y="9" as="offset"/>
</mxGeometry>
</mxCell>
<mxCell id="-3Om5Twb0YCuTLOiDZB2-6" style="edgeStyle=orthogonalEdgeStyle;rounded=0;orthogonalLoop=1;jettySize=auto;html=1;fontColor=#CCCCCC;strokeColor=#808080;endSize=12;endArrow=blockThin;endFill=1;entryX=0.001;entryY=0.39;entryDx=0;entryDy=0;entryPerimeter=0;dashed=1;dashPattern=12 12;" parent="1" source="-3Om5Twb0YCuTLOiDZB2-1" target="IY_3jIdmcAkdkIJxxCQ0-19" edge="1">
<mxGeometry relative="1" as="geometry">
<mxPoint x="-605" y="1230" as="sourcePoint"/>
<mxPoint x="-605" y="1300" as="targetPoint"/>
<Array as="points">
<mxPoint x="-970" y="1360"/>
<mxPoint x="-970" y="863"/>
</Array>
</mxGeometry>
</mxCell>
<mxCell id="-3Om5Twb0YCuTLOiDZB2-7" value="<span style="font-size: 12px;">Уведомления для абитуриента об <br>обновленном статусе его заявления</span>" style="edgeLabel;html=1;align=center;verticalAlign=middle;resizable=0;points=[];" parent="-3Om5Twb0YCuTLOiDZB2-6" vertex="1" connectable="0">
<mxGeometry x="-0.399" y="-2" relative="1" as="geometry">
<mxPoint x="-1" y="-26" as="offset"/>
</mxGeometry>
</mxCell>
<mxCell id="-3Om5Twb0YCuTLOiDZB2-10" value="<div style="text-align: left;"><b style="background-color: initial;">[System Context] Abiturient.tsu system</b></div><font style="font-size: 12px;"><div style="text-align: left;"><span style="background-color: initial;">Diagram short description</span></div></font>" style="text;html=1;align=center;verticalAlign=middle;whiteSpace=wrap;rounded=0;" parent="1" vertex="1">
<mxGeometry x="-1130" y="740" width="230" height="30" as="geometry"/>
</mxCell>
<mxCell id="-3Om5Twb0YCuTLOiDZB2-55" value="" style="strokeWidth=0;html=1;shape=mxgraph.flowchart.database;whiteSpace=wrap;fillColor=#52a2d8;" parent="1" vertex="1">
<mxGeometry x="763.9300000000001" y="2760" width="200" height="150" as="geometry"/>
</mxCell>
<mxCell id="-3Om5Twb0YCuTLOiDZB2-56" value="<font color="#ffffff"><span style="font-size: 14px;"><b>Database<br></b></span>[Container: PostgreSQL]</font>" style="text;html=1;align=center;verticalAlign=middle;whiteSpace=wrap;rounded=0;" parent="1" vertex="1">
<mxGeometry x="754.9300000000001" y="2816" width="230" height="30" as="geometry"/>
</mxCell>
<mxCell id="-3Om5Twb0YCuTLOiDZB2-57" value="<font color="#e6e6e6">Содержит всю информацию о пользователях, факультетах, заявлениях</font>" style="text;html=1;align=center;verticalAlign=middle;whiteSpace=wrap;rounded=0;glass=0;" parent="1" vertex="1">
<mxGeometry x="764.9300000000001" y="2863" width="200" height="30" as="geometry"/>
</mxCell>
<mxCell id="-3Om5Twb0YCuTLOiDZB2-58" style="edgeStyle=orthogonalEdgeStyle;rounded=0;orthogonalLoop=1;jettySize=auto;html=1;fontColor=#CCCCCC;strokeColor=#808080;endSize=12;endArrow=blockThin;endFill=1;dashed=1;dashPattern=12 12;" parent="1" target="-3Om5Twb0YCuTLOiDZB2-55" edge="1">
<mxGeometry relative="1" as="geometry">
<mxPoint x="530" y="2867" as="sourcePoint"/>
<mxPoint x="241.49" y="3077" as="targetPoint"/>
<Array as="points">
<mxPoint x="590" y="2861"/>
</Array>
</mxGeometry>
</mxCell>
<mxCell id="-3Om5Twb0YCuTLOiDZB2-59" value="Берет данные из<br>Записывает данные в" style="edgeLabel;html=1;align=center;verticalAlign=middle;resizable=0;points=[];" parent="-3Om5Twb0YCuTLOiDZB2-58" vertex="1" connectable="0">
<mxGeometry x="-0.399" y="-2" relative="1" as="geometry">
<mxPoint x="21" y="-2" as="offset"/>
</mxGeometry>
</mxCell>
<mxCell id="MaOl4jfl0PFDX4A6IsZu-1" value="" style="rounded=1;whiteSpace=wrap;html=1;" parent="1" vertex="1">
<mxGeometry x="-1188.5" y="390" width="427.25" height="250" as="geometry"/>
</mxCell>
<mxCell id="MaOl4jfl0PFDX4A6IsZu-2" value="" style="rounded=1;whiteSpace=wrap;html=1;" parent="1" vertex="1">
<mxGeometry x="-749.13" y="75" width="249.13" height="190" as="geometry"/>
</mxCell>
<mxCell id="MaOl4jfl0PFDX4A6IsZu-3" value="" style="rounded=1;whiteSpace=wrap;html=1;" parent="1" vertex="1">
<mxGeometry x="-436.13" y="-110" width="161" height="410" as="geometry"/>
</mxCell>
<mxCell id="MaOl4jfl0PFDX4A6IsZu-4" value="" style="rounded=1;whiteSpace=wrap;html=1;fontStyle=1" parent="1" vertex="1">
<mxGeometry x="-1200" y="-230" width="455" height="260" as="geometry"/>
</mxCell>
<mxCell id="MaOl4jfl0PFDX4A6IsZu-5" style="edgeStyle=orthogonalEdgeStyle;rounded=0;orthogonalLoop=1;jettySize=auto;html=1;endArrow=none;endFill=0;" parent="1" source="MaOl4jfl0PFDX4A6IsZu-7" target="MaOl4jfl0PFDX4A6IsZu-9" edge="1">
<mxGeometry relative="1" as="geometry">
<Array as="points"/>
</mxGeometry>
</mxCell>
<mxCell id="MaOl4jfl0PFDX4A6IsZu-6" style="edgeStyle=orthogonalEdgeStyle;rounded=0;orthogonalLoop=1;jettySize=auto;html=1;endArrow=none;endFill=0;" parent="1" source="MaOl4jfl0PFDX4A6IsZu-7" target="MaOl4jfl0PFDX4A6IsZu-8" edge="1">
<mxGeometry relative="1" as="geometry">
<mxPoint x="-487.63" y="-10" as="targetPoint"/>
<Array as="points">
<mxPoint x="-358.63" y="10"/>
<mxPoint x="-358.63" y="10"/>
</Array>
</mxGeometry>
</mxCell>
<mxCell id="MaOl4jfl0PFDX4A6IsZu-7" value="Уведомление" style="ellipse;whiteSpace=wrap;html=1;" parent="1" vertex="1">
<mxGeometry x="-418.63" y="20" width="120" height="80" as="geometry"/>
</mxCell>
<mxCell id="MaOl4jfl0PFDX4A6IsZu-8" value="Пользователь" style="ellipse;whiteSpace=wrap;html=1;" parent="1" vertex="1">
<mxGeometry x="-418.63" y="-80" width="120" height="80" as="geometry"/>
</mxCell>
<mxCell id="MaOl4jfl0PFDX4A6IsZu-9" value="Причина уведомления" style="ellipse;whiteSpace=wrap;html=1;" parent="1" vertex="1">
<mxGeometry x="-418.63" y="130" width="120" height="80" as="geometry"/>
</mxCell>
<mxCell id="MaOl4jfl0PFDX4A6IsZu-10" value="<span style="font-size: 18px;">Контекст уведомлений</span>" style="text;html=1;align=center;verticalAlign=middle;whiteSpace=wrap;rounded=0;" parent="1" vertex="1">
<mxGeometry x="-436.13" y="240" width="163.5" height="30" as="geometry"/>
</mxCell>
<mxCell id="MaOl4jfl0PFDX4A6IsZu-11" value="Пользователь" style="ellipse;whiteSpace=wrap;html=1;" parent="1" vertex="1">
<mxGeometry x="-687.51" y="135" width="120" height="80" as="geometry"/>
</mxCell>
<mxCell id="MaOl4jfl0PFDX4A6IsZu-12" value="<span style="font-size: 18px;">Контекст пользователя</span>" style="text;html=1;align=center;verticalAlign=middle;whiteSpace=wrap;rounded=0;" parent="1" vertex="1">
<mxGeometry x="-613.3199999999999" y="220" width="94.88" height="30" as="geometry"/>
</mxCell>
<mxCell id="MaOl4jfl0PFDX4A6IsZu-15" value="" style="edgeStyle=orthogonalEdgeStyle;rounded=0;orthogonalLoop=1;jettySize=auto;html=1;endArrow=none;endFill=0;" parent="1" source="MaOl4jfl0PFDX4A6IsZu-7" target="MaOl4jfl0PFDX4A6IsZu-9" edge="1">
<mxGeometry relative="1" as="geometry">
<mxPoint x="-298.63" y="-20" as="sourcePoint"/>
<mxPoint x="-228.63" y="-20" as="targetPoint"/>
<Array as="points">
<mxPoint x="-358.13" y="123"/>
</Array>
</mxGeometry>
</mxCell>
<mxCell id="MaOl4jfl0PFDX4A6IsZu-18" value="<span style="font-size: 18px;">Контекст профиля абитуриента</span>" style="text;html=1;align=center;verticalAlign=middle;whiteSpace=wrap;rounded=0;" parent="1" vertex="1">
<mxGeometry x="-1125" y="-230" width="305" height="30" as="geometry"/>
</mxCell>
<mxCell id="MaOl4jfl0PFDX4A6IsZu-19" value="<span style="font-size: 18px;">Контекст данных о факультете<br></span>" style="text;html=1;align=center;verticalAlign=middle;whiteSpace=wrap;rounded=0;" parent="1" vertex="1">
<mxGeometry x="-1161" y="610" width="354.25" height="30" as="geometry"/>
</mxCell>
<mxCell id="MaOl4jfl0PFDX4A6IsZu-21" value="Документ" style="ellipse;whiteSpace=wrap;html=1;" parent="1" vertex="1">
<mxGeometry x="-1035" y="-190" width="120" height="80" as="geometry"/>
</mxCell>
<mxCell id="MaOl4jfl0PFDX4A6IsZu-22" value="Абитуриент" style="ellipse;whiteSpace=wrap;html=1;" parent="1" vertex="1">
<mxGeometry x="-886.5" y="-190" width="120" height="80" as="geometry"/>
</mxCell>
<mxCell id="MaOl4jfl0PFDX4A6IsZu-24" value="Файл" style="ellipse;whiteSpace=wrap;html=1;" parent="1" vertex="1">
<mxGeometry x="-1182.5" y="-190" width="120" height="80" as="geometry"/>
</mxCell>
<mxCell id="MaOl4jfl0PFDX4A6IsZu-25" value="Программа поступления" style="ellipse;whiteSpace=wrap;html=1;" parent="1" vertex="1">
<mxGeometry x="-418.63" y="540" width="120" height="80" as="geometry"/>
</mxCell>
<mxCell id="MaOl4jfl0PFDX4A6IsZu-28" style="edgeStyle=orthogonalEdgeStyle;rounded=0;orthogonalLoop=1;jettySize=auto;html=1;endArrow=none;endFill=0;" parent="1" source="MaOl4jfl0PFDX4A6IsZu-21" target="MaOl4jfl0PFDX4A6IsZu-22" edge="1">
<mxGeometry relative="1" as="geometry">
<mxPoint x="-1056.5" y="-60" as="sourcePoint"/>
<mxPoint x="-946.5" y="-120" as="targetPoint"/>
<Array as="points">
<mxPoint x="-961.5" y="-150"/>
<mxPoint x="-961.5" y="-150"/>
</Array>
</mxGeometry>
</mxCell>
<mxCell id="MaOl4jfl0PFDX4A6IsZu-31" style="edgeStyle=orthogonalEdgeStyle;rounded=0;orthogonalLoop=1;jettySize=auto;html=1;endArrow=none;endFill=0;" parent="1" source="MaOl4jfl0PFDX4A6IsZu-24" target="MaOl4jfl0PFDX4A6IsZu-21" edge="1">
<mxGeometry relative="1" as="geometry">
<mxPoint x="-966.5" as="sourcePoint"/>
<mxPoint x="-906.5" y="-21" as="targetPoint"/>
<Array as="points">
<mxPoint x="-1051.5" y="-150"/>
<mxPoint x="-1051.5" y="-150"/>
</Array>
</mxGeometry>
</mxCell>
<mxCell id="MaOl4jfl0PFDX4A6IsZu-32" value="Факультет" style="ellipse;whiteSpace=wrap;html=1;" parent="1" vertex="1">
<mxGeometry x="-1033.75" y="410" width="120" height="80" as="geometry"/>
</mxCell>
<mxCell id="MaOl4jfl0PFDX4A6IsZu-33" value="Программа" style="ellipse;whiteSpace=wrap;html=1;" parent="1" vertex="1">
<mxGeometry x="-1033.75" y="525" width="120" height="80" as="geometry"/>
</mxCell>
<mxCell id="MaOl4jfl0PFDX4A6IsZu-34" value="Уровень образования" style="ellipse;whiteSpace=wrap;html=1;" parent="1" vertex="1">
<mxGeometry x="-1169.5" y="525" width="120" height="80" as="geometry"/>
</mxCell>
<mxCell id="MaOl4jfl0PFDX4A6IsZu-35" style="edgeStyle=orthogonalEdgeStyle;rounded=0;orthogonalLoop=1;jettySize=auto;html=1;endArrow=none;endFill=0;" parent="1" source="MaOl4jfl0PFDX4A6IsZu-33" target="MaOl4jfl0PFDX4A6IsZu-32" edge="1">
<mxGeometry relative="1" as="geometry">
<mxPoint x="-991.25" y="470" as="sourcePoint"/>
<mxPoint x="-981.25" y="410" as="targetPoint"/>
<Array as="points">
<mxPoint x="-973.75" y="510"/>
<mxPoint x="-973.75" y="510"/>
</Array>
</mxGeometry>
</mxCell>
<mxCell id="MaOl4jfl0PFDX4A6IsZu-39" value="Менеджер" style="ellipse;whiteSpace=wrap;html=1;" parent="1" vertex="1">
<mxGeometry x="-896" y="410" width="120" height="80" as="geometry"/>
</mxCell>
<mxCell id="MaOl4jfl0PFDX4A6IsZu-48" value="U" style="text;html=1;align=center;verticalAlign=middle;whiteSpace=wrap;rounded=0;fontStyle=0;fontSize=18;" parent="1" vertex="1">
<mxGeometry x="-625.75" y="350" width="21.5" height="30" as="geometry"/>
</mxCell>
<mxCell id="MaOl4jfl0PFDX4A6IsZu-49" value="U" style="text;html=1;align=center;verticalAlign=middle;whiteSpace=wrap;rounded=0;fontStyle=0;fontSize=18;" parent="1" vertex="1">
<mxGeometry x="-659.88" y="445" width="21.5" height="30" as="geometry"/>
</mxCell>
<mxCell id="MaOl4jfl0PFDX4A6IsZu-51" value="U" style="text;html=1;align=center;verticalAlign=middle;whiteSpace=wrap;rounded=0;fontStyle=0;fontSize=18;" parent="1" vertex="1">
<mxGeometry x="-1210" y="420" width="21.5" height="30" as="geometry"/>
</mxCell>
<mxCell id="MaOl4jfl0PFDX4A6IsZu-58" value="Поступление абитуриента" style="ellipse;whiteSpace=wrap;html=1;" parent="1" vertex="1">
<mxGeometry x="-272.63" y="350" width="120" height="80" as="geometry"/>
</mxCell>
<mxCell id="MaOl4jfl0PFDX4A6IsZu-59" value="Менеджер" style="ellipse;whiteSpace=wrap;html=1;" parent="1" vertex="1">
<mxGeometry x="-418.63" y="445" width="120" height="80" as="geometry"/>
</mxCell>
<mxCell id="MaOl4jfl0PFDX4A6IsZu-61" value="Абитуриент" style="ellipse;whiteSpace=wrap;html=1;" parent="1" vertex="1">
<mxGeometry x="-418.63" y="350" width="120" height="80" as="geometry"/>
</mxCell>
<mxCell id="MaOl4jfl0PFDX4A6IsZu-62" value="<span style="font-size: 18px;">Контекст заявления на поступление<br></span>" style="text;html=1;align=center;verticalAlign=middle;whiteSpace=wrap;rounded=0;" parent="1" vertex="1">
<mxGeometry x="-266.63" y="565" width="149" height="30" as="geometry"/>
</mxCell>
<mxCell id="MaOl4jfl0PFDX4A6IsZu-64" style="edgeStyle=orthogonalEdgeStyle;rounded=0;orthogonalLoop=1;jettySize=auto;html=1;endArrow=none;endFill=0;" parent="1" source="MaOl4jfl0PFDX4A6IsZu-63" target="MaOl4jfl0PFDX4A6IsZu-34" edge="1">
<mxGeometry relative="1" as="geometry">
<mxPoint x="-1357.75" y="250" as="sourcePoint"/>
<mxPoint x="-1107.75" y="450" as="targetPoint"/>
<Array as="points"/>
</mxGeometry>
</mxCell>
<mxCell id="MaOl4jfl0PFDX4A6IsZu-66" style="edgeStyle=orthogonalEdgeStyle;rounded=0;orthogonalLoop=1;jettySize=auto;html=1;endArrow=none;endFill=0;" parent="1" source="MaOl4jfl0PFDX4A6IsZu-63" target="MaOl4jfl0PFDX4A6IsZu-34" edge="1">
<mxGeometry relative="1" as="geometry">
<mxPoint x="-1047.75" y="490" as="sourcePoint"/>
<mxPoint x="-1027.75" y="490" as="targetPoint"/>
<Array as="points">
<mxPoint x="-1109.5" y="560"/>
</Array>
</mxGeometry>
</mxCell>
<mxCell id="MaOl4jfl0PFDX4A6IsZu-67" style="edgeStyle=orthogonalEdgeStyle;rounded=0;orthogonalLoop=1;jettySize=auto;html=1;endArrow=none;endFill=0;" parent="1" source="MaOl4jfl0PFDX4A6IsZu-39" target="MaOl4jfl0PFDX4A6IsZu-32" edge="1">
<mxGeometry relative="1" as="geometry">
<mxPoint x="-1037.75" y="500" as="sourcePoint"/>
<mxPoint x="-1017.75" y="500" as="targetPoint"/>
<Array as="points">
<mxPoint x="-908.5" y="450"/>
<mxPoint x="-908.5" y="450"/>
</Array>
</mxGeometry>
</mxCell>
<mxCell id="MaOl4jfl0PFDX4A6IsZu-78" style="edgeStyle=orthogonalEdgeStyle;rounded=0;orthogonalLoop=1;jettySize=auto;html=1;endArrow=none;endFill=0;" parent="1" source="MaOl4jfl0PFDX4A6IsZu-58" target="MaOl4jfl0PFDX4A6IsZu-25" edge="1">
<mxGeometry relative="1" as="geometry">
<mxPoint x="-212.63" y="520" as="sourcePoint"/>
<mxPoint x="-212.63" y="660" as="targetPoint"/>
<Array as="points">
<mxPoint x="-212.63" y="500"/>
<mxPoint x="-262.63" y="500"/>
<mxPoint x="-262.63" y="580"/>
</Array>
</mxGeometry>
</mxCell>
<mxCell id="MaOl4jfl0PFDX4A6IsZu-79" style="edgeStyle=orthogonalEdgeStyle;rounded=0;orthogonalLoop=1;jettySize=auto;html=1;endArrow=none;endFill=0;" parent="1" source="MaOl4jfl0PFDX4A6IsZu-58" target="MaOl4jfl0PFDX4A6IsZu-59" edge="1">
<mxGeometry relative="1" as="geometry">
<mxPoint x="-212.63" y="520" as="sourcePoint"/>
<mxPoint x="-212.63" y="660" as="targetPoint"/>
<Array as="points">
<mxPoint x="-282.63" y="410"/>
<mxPoint x="-282.63" y="485"/>
<mxPoint x="-354.63" y="485"/>
</Array>
</mxGeometry>
</mxCell>
<mxCell id="MaOl4jfl0PFDX4A6IsZu-80" style="edgeStyle=orthogonalEdgeStyle;rounded=0;orthogonalLoop=1;jettySize=auto;html=1;endArrow=none;endFill=0;" parent="1" source="MaOl4jfl0PFDX4A6IsZu-61" target="MaOl4jfl0PFDX4A6IsZu-58" edge="1">
<mxGeometry relative="1" as="geometry">
<mxPoint x="-357.63" y="519" as="sourcePoint"/>
<mxPoint x="-357.63" y="530" as="targetPoint"/>
<Array as="points">
<mxPoint x="-302.63" y="370"/>
<mxPoint x="-302.63" y="370"/>
</Array>
</mxGeometry>
</mxCell>
<mxCell id="MaOl4jfl0PFDX4A6IsZu-82" value="U" style="text;html=1;align=center;verticalAlign=middle;whiteSpace=wrap;rounded=0;fontStyle=0;fontSize=18;" parent="1" vertex="1">
<mxGeometry x="-671" y="-150" width="21.5" height="30" as="geometry"/>
</mxCell>
<mxCell id="MaOl4jfl0PFDX4A6IsZu-83" value="D" style="text;html=1;align=center;verticalAlign=middle;whiteSpace=wrap;rounded=0;fontStyle=0;fontSize=18;" parent="1" vertex="1">
<mxGeometry x="-1105" y="30" width="21.5" height="30" as="geometry"/>
</mxCell>
<mxCell id="MaOl4jfl0PFDX4A6IsZu-88" value="" style="edgeStyle=orthogonalEdgeStyle;rounded=0;orthogonalLoop=1;jettySize=auto;html=1;endArrow=none;endFill=0;" parent="1" source="MaOl4jfl0PFDX4A6IsZu-34" target="MaOl4jfl0PFDX4A6IsZu-63" edge="1">
<mxGeometry relative="1" as="geometry">
<mxPoint x="-1049.5" y="560" as="sourcePoint"/>
<mxPoint x="-914.5" y="560" as="targetPoint"/>
<Array as="points"/>
</mxGeometry>
</mxCell>
<mxCell id="MaOl4jfl0PFDX4A6IsZu-63" value="Тип документа об образовании" style="ellipse;whiteSpace=wrap;html=1;" parent="1" vertex="1">
<mxGeometry x="-1169.5" y="410" width="120" height="80" as="geometry"/>
</mxCell>
<mxCell id="MaOl4jfl0PFDX4A6IsZu-89" value="" style="edgeStyle=orthogonalEdgeStyle;rounded=0;orthogonalLoop=1;jettySize=auto;html=1;endArrow=none;endFill=0;" parent="1" source="MaOl4jfl0PFDX4A6IsZu-34" target="MaOl4jfl0PFDX4A6IsZu-33" edge="1">
<mxGeometry relative="1" as="geometry">
<mxPoint x="-1099.5" y="535" as="sourcePoint"/>
<mxPoint x="-1099.5" y="500" as="targetPoint"/>
<Array as="points">
<mxPoint x="-1038.5" y="565"/>
<mxPoint x="-1038.5" y="565"/>
</Array>
</mxGeometry>
</mxCell>
<mxCell id="MaOl4jfl0PFDX4A6IsZu-92" style="edgeStyle=orthogonalEdgeStyle;rounded=0;orthogonalLoop=1;jettySize=auto;html=1;endArrow=none;endFill=0;" parent="1" source="MaOl4jfl0PFDX4A6IsZu-8" target="MaOl4jfl0PFDX4A6IsZu-11" edge="1">
<mxGeometry relative="1" as="geometry">
<mxPoint x="-412" y="20" as="sourcePoint"/>
<mxPoint x="-412" as="targetPoint"/>
<Array as="points">
<mxPoint x="-600" y="-50"/>
</Array>
</mxGeometry>
</mxCell>
<mxCell id="MaOl4jfl0PFDX4A6IsZu-93" style="edgeStyle=orthogonalEdgeStyle;rounded=0;orthogonalLoop=1;jettySize=auto;html=1;endArrow=none;endFill=0;" parent="1" source="MaOl4jfl0PFDX4A6IsZu-61" target="MaOl4jfl0PFDX4A6IsZu-11" edge="1">
<mxGeometry relative="1" as="geometry">
<mxPoint x="-472" y="-40" as="sourcePoint"/>
<mxPoint x="-803" y="190" as="targetPoint"/>
<Array as="points">
<mxPoint x="-627" y="380"/>
</Array>
</mxGeometry>
</mxCell>
<mxCell id="MaOl4jfl0PFDX4A6IsZu-94" style="edgeStyle=orthogonalEdgeStyle;rounded=0;orthogonalLoop=1;jettySize=auto;html=1;endArrow=none;endFill=0;" parent="1" source="MaOl4jfl0PFDX4A6IsZu-59" target="MaOl4jfl0PFDX4A6IsZu-11" edge="1">
<mxGeometry relative="1" as="geometry">
<mxPoint x="-472" y="390" as="sourcePoint"/>
<mxPoint x="-782" y="220" as="targetPoint"/>
<Array as="points">
<mxPoint x="-660" y="475"/>
</Array>
</mxGeometry>
</mxCell>
<mxCell id="MaOl4jfl0PFDX4A6IsZu-95" style="edgeStyle=orthogonalEdgeStyle;rounded=0;orthogonalLoop=1;jettySize=auto;html=1;endArrow=none;endFill=0;" parent="1" source="MaOl4jfl0PFDX4A6IsZu-39" target="MaOl4jfl0PFDX4A6IsZu-11" edge="1">
<mxGeometry relative="1" as="geometry">
<mxPoint x="-472" y="485" as="sourcePoint"/>
<mxPoint x="-791" y="240" as="targetPoint"/>
<Array as="points">
<mxPoint x="-836" y="340"/>
<mxPoint x="-710" y="340"/>
<mxPoint x="-710" y="175"/>
</Array>
</mxGeometry>
</mxCell>
<mxCell id="MaOl4jfl0PFDX4A6IsZu-96" value="U" style="text;html=1;align=center;verticalAlign=middle;whiteSpace=wrap;rounded=0;fontStyle=0;fontSize=18;" parent="1" vertex="1">
<mxGeometry x="-731.5" y="310" width="21.5" height="30" as="geometry"/>
</mxCell>
<mxCell id="MaOl4jfl0PFDX4A6IsZu-97" value="D" style="text;html=1;align=center;verticalAlign=middle;whiteSpace=wrap;rounded=0;fontStyle=0;fontSize=18;" parent="1" vertex="1">
<mxGeometry x="-457.63" y="350" width="21.5" height="30" as="geometry"/>
</mxCell>
<mxCell id="MaOl4jfl0PFDX4A6IsZu-98" value="D" style="text;html=1;align=center;verticalAlign=middle;whiteSpace=wrap;rounded=0;fontStyle=0;fontSize=18;" parent="1" vertex="1">
<mxGeometry x="-457.63" y="445" width="21.5" height="30" as="geometry"/>
</mxCell>
<mxCell id="MaOl4jfl0PFDX4A6IsZu-99" value="D" style="text;html=1;align=center;verticalAlign=middle;whiteSpace=wrap;rounded=0;fontStyle=0;fontSize=18;" parent="1" vertex="1">
<mxGeometry x="-836.5" y="360" width="21.5" height="30" as="geometry"/>
</mxCell>
<mxCell id="MaOl4jfl0PFDX4A6IsZu-100" style="edgeStyle=orthogonalEdgeStyle;rounded=0;orthogonalLoop=1;jettySize=auto;html=1;endArrow=none;endFill=0;" parent="1" source="MaOl4jfl0PFDX4A6IsZu-25" target="MaOl4jfl0PFDX4A6IsZu-33" edge="1">
<mxGeometry relative="1" as="geometry">
<mxPoint x="-647" y="420" as="sourcePoint"/>
<mxPoint x="-842" y="260" as="targetPoint"/>
<Array as="points">
<mxPoint x="-740" y="570"/>
<mxPoint x="-740" y="570"/>
</Array>
</mxGeometry>
</mxCell>
<mxCell id="MaOl4jfl0PFDX4A6IsZu-102" value="D" style="text;html=1;align=center;verticalAlign=middle;whiteSpace=wrap;rounded=0;fontStyle=0;fontSize=18;" parent="1" vertex="1">
<mxGeometry x="-457.63" y="540" width="21.5" height="30" as="geometry"/>
</mxCell>
<mxCell id="MaOl4jfl0PFDX4A6IsZu-103" value="U" style="text;html=1;align=center;verticalAlign=middle;whiteSpace=wrap;rounded=0;fontStyle=0;fontSize=18;" parent="1" vertex="1">
<mxGeometry x="-761.5" y="540" width="21.5" height="30" as="geometry"/>
</mxCell>
<mxCell id="MaOl4jfl0PFDX4A6IsZu-104" value="D" style="text;html=1;align=center;verticalAlign=middle;whiteSpace=wrap;rounded=0;fontStyle=0;fontSize=18;" parent="1" vertex="1">
<mxGeometry x="-457.63" y="-50" width="21.5" height="30" as="geometry"/>
</mxCell>
<mxCell id="MaOl4jfl0PFDX4A6IsZu-105" value="Документ об образовании" style="ellipse;whiteSpace=wrap;html=1;" parent="1" vertex="1">
<mxGeometry x="-1166.75" y="-70" width="120" height="80" as="geometry"/>
</mxCell>
<mxCell id="MaOl4jfl0PFDX4A6IsZu-106" value="Паспорт" style="ellipse;whiteSpace=wrap;html=1;" parent="1" vertex="1">
<mxGeometry x="-909" y="-60" width="120" height="80" as="geometry"/>
</mxCell>
<mxCell id="MaOl4jfl0PFDX4A6IsZu-107" style="edgeStyle=orthogonalEdgeStyle;rounded=0;orthogonalLoop=1;jettySize=auto;html=1;endArrow=none;endFill=0;" parent="1" source="MaOl4jfl0PFDX4A6IsZu-21" target="MaOl4jfl0PFDX4A6IsZu-106" edge="1">
<mxGeometry relative="1" as="geometry">
<mxPoint x="-904.5" y="-140" as="sourcePoint"/>
<mxPoint x="-876.5" y="-140" as="targetPoint"/>
<Array as="points">
<mxPoint x="-961.5" y="-90"/>
<mxPoint x="-848.5" y="-90"/>
</Array>
</mxGeometry>
</mxCell>
<mxCell id="MaOl4jfl0PFDX4A6IsZu-108" style="edgeStyle=orthogonalEdgeStyle;rounded=0;orthogonalLoop=1;jettySize=auto;html=1;endArrow=none;endFill=0;" parent="1" source="MaOl4jfl0PFDX4A6IsZu-21" target="MaOl4jfl0PFDX4A6IsZu-105" edge="1">
<mxGeometry relative="1" as="geometry">
<mxPoint x="-964.5" y="-100" as="sourcePoint"/>
<mxPoint x="-891.5" y="-60" as="targetPoint"/>
<Array as="points">
<mxPoint x="-991.5" y="-90"/>
<mxPoint x="-1101.5" y="-90"/>
</Array>
</mxGeometry>
</mxCell>
<mxCell id="MaOl4jfl0PFDX4A6IsZu-109" style="edgeStyle=orthogonalEdgeStyle;rounded=0;orthogonalLoop=1;jettySize=auto;html=1;endArrow=none;endFill=0;" parent="1" source="MaOl4jfl0PFDX4A6IsZu-9" target="MaOl4jfl0PFDX4A6IsZu-58" edge="1">
<mxGeometry relative="1" as="geometry">
<mxPoint x="-408.13" y="-30" as="sourcePoint"/>
<mxPoint x="-727.13" y="210" as="targetPoint"/>
<Array as="points">
<mxPoint x="-206" y="180"/>
</Array>
</mxGeometry>
</mxCell>
<mxCell id="MaOl4jfl0PFDX4A6IsZu-110" style="edgeStyle=orthogonalEdgeStyle;rounded=0;orthogonalLoop=1;jettySize=auto;html=1;endArrow=none;endFill=0;" parent="1" source="MaOl4jfl0PFDX4A6IsZu-105" target="MaOl4jfl0PFDX4A6IsZu-63" edge="1">
<mxGeometry relative="1" as="geometry">
<mxPoint x="-1124.25" y="110" as="sourcePoint"/>
<mxPoint x="-1038.25" y="290" as="targetPoint"/>
<Array as="points">
<mxPoint x="-1107" y="450"/>
</Array>
</mxGeometry>
</mxCell>
<mxCell id="MaOl4jfl0PFDX4A6IsZu-68" value="Тип" style="rounded=0;whiteSpace=wrap;html=1;" parent="1" vertex="1">
<mxGeometry x="-1121.5" y="10" width="30" height="15" as="geometry"/>
</mxCell>
<mxCell id="MaOl4jfl0PFDX4A6IsZu-113" style="edgeStyle=orthogonalEdgeStyle;rounded=0;orthogonalLoop=1;jettySize=auto;html=1;endArrow=none;endFill=0;" parent="1" source="MaOl4jfl0PFDX4A6IsZu-22" target="MaOl4jfl0PFDX4A6IsZu-11" edge="1">
<mxGeometry relative="1" as="geometry">
<mxPoint x="-472" y="-40" as="sourcePoint"/>
<mxPoint x="-791" y="200" as="targetPoint"/>
<Array as="points">
<mxPoint x="-650" y="-150"/>
</Array>
</mxGeometry>
</mxCell>
<mxCell id="MaOl4jfl0PFDX4A6IsZu-114" value="U" style="text;html=1;align=center;verticalAlign=middle;whiteSpace=wrap;rounded=0;fontStyle=0;fontSize=18;" parent="1" vertex="1">
<mxGeometry x="-600.25" y="-50" width="21.5" height="30" as="geometry"/>
</mxCell>
<mxCell id="MaOl4jfl0PFDX4A6IsZu-115" value="D" style="text;html=1;align=center;verticalAlign=middle;whiteSpace=wrap;rounded=0;fontStyle=0;fontSize=18;" parent="1" vertex="1">
<mxGeometry x="-745" y="-150" width="21.5" height="30" as="geometry"/>
</mxCell>
<mxCell id="MaOl4jfl0PFDX4A6IsZu-118" value="U" style="text;html=1;align=center;verticalAlign=middle;whiteSpace=wrap;rounded=0;fontStyle=0;fontSize=18;" parent="1" vertex="1">
<mxGeometry x="-228.63" y="300" width="21.5" height="30" as="geometry"/>
</mxCell>
<mxCell id="MaOl4jfl0PFDX4A6IsZu-119" value="D" style="text;html=1;align=center;verticalAlign=middle;whiteSpace=wrap;rounded=0;fontStyle=0;fontSize=18;" parent="1" vertex="1">
<mxGeometry x="-228.63" y="180" width="21.5" height="30" as="geometry"/>
</mxCell>
<mxCell id="MaOl4jfl0PFDX4A6IsZu-251" value="" style="rounded=1;whiteSpace=wrap;html=1;arcSize=39;fillColor=#1e4074;fontColor=#ffffff;strokeColor=default;strokeWidth=0;" parent="1" vertex="1">
<mxGeometry x="-15" y="1680" width="200" height="110" as="geometry"/>
</mxCell>
<mxCell id="MaOl4jfl0PFDX4A6IsZu-252" value="" style="ellipse;whiteSpace=wrap;html=1;aspect=fixed;fillColor=#1e4074;strokeColor=default;strokeWidth=0;" parent="1" vertex="1">
<mxGeometry x="45" y="1620" width="80" height="80" as="geometry"/>
</mxCell>
<mxCell id="MaOl4jfl0PFDX4A6IsZu-253" value="<font color="#ffffff"><span style="font-size: 14px;"><b>Главный менеджер</b></span><br>[Person]</font>" style="text;html=1;align=center;verticalAlign=middle;whiteSpace=wrap;rounded=0;" parent="1" vertex="1">
<mxGeometry x="-5" y="1700" width="180" height="30" as="geometry"/>
</mxCell>
<mxCell id="MaOl4jfl0PFDX4A6IsZu-254" value="<font color="#cccccc">Главный менеджер, который управляет течением приемной кампании<br></font>" style="text;html=1;align=center;verticalAlign=middle;whiteSpace=wrap;rounded=0;" parent="1" vertex="1">
<mxGeometry x="-10" y="1750" width="190" height="30" as="geometry"/>
</mxCell>
<mxCell id="MaOl4jfl0PFDX4A6IsZu-255" style="rounded=0;orthogonalLoop=1;jettySize=auto;html=1;fontColor=#CCCCCC;strokeColor=#d79b00;endSize=12;endArrow=blockThin;endFill=1;dashed=1;dashPattern=12 12;fillColor=#ffe6cc;" parent="1" source="MaOl4jfl0PFDX4A6IsZu-251" target="ejbdm7QBQYjt1qYfrLMg-64" edge="1">
<mxGeometry relative="1" as="geometry">
<mxPoint x="-81.71000000000004" y="1725" as="sourcePoint"/>
<mxPoint x="-80.37" y="1890" as="targetPoint"/>
</mxGeometry>
</mxCell>
<mxCell id="ejbdm7QBQYjt1qYfrLMg-128" value="Обладает правами менеджера, но не обязанностями.<br>Назначает менеджеров на поступление" style="edgeLabel;html=1;align=center;verticalAlign=middle;resizable=0;points=[];" parent="MaOl4jfl0PFDX4A6IsZu-255" vertex="1" connectable="0">
<mxGeometry x="-0.2368" relative="1" as="geometry">
<mxPoint x="40" as="offset"/>
</mxGeometry>
</mxCell>
<mxCell id="MaOl4jfl0PFDX4A6IsZu-16" value="Статус" style="rounded=0;whiteSpace=wrap;html=1;" parent="1" vertex="1">
<mxGeometry x="-235.13" y="335" width="42.5" height="15" as="geometry"/>
</mxCell>
<mxCell id="ejbdm7QBQYjt1qYfrLMg-3" value="" style="rounded=1;whiteSpace=wrap;html=1;fontStyle=1;fillColor=#f8cecc;strokeColor=#b85450;" parent="1" vertex="1">
<mxGeometry x="-1077" y="110" width="237" height="220" as="geometry"/>
</mxCell>
<mxCell id="ejbdm7QBQYjt1qYfrLMg-5" value="Документ абитуриента" style="ellipse;whiteSpace=wrap;html=1;" parent="1" vertex="1">
<mxGeometry x="-969.5" y="120" width="120" height="80" as="geometry"/>
</mxCell>
<mxCell id="ejbdm7QBQYjt1qYfrLMg-6" value="Менеджер программы,<br>Главный менеджер,<br>Администратор" style="ellipse;whiteSpace=wrap;html=1;" parent="1" vertex="1">
<mxGeometry x="-969.5" y="230" width="120" height="80" as="geometry"/>
</mxCell>
<mxCell id="ejbdm7QBQYjt1qYfrLMg-8" value="<span style="font-size: 18px;">Контекст изменения данных абитуриента<br>менеджером<br></span>" style="text;html=1;align=center;verticalAlign=middle;whiteSpace=wrap;rounded=0;" parent="1" vertex="1">
<mxGeometry x="-1096" y="155" width="149" height="30" as="geometry"/>
</mxCell>
<mxCell id="ejbdm7QBQYjt1qYfrLMg-10" style="edgeStyle=orthogonalEdgeStyle;rounded=0;orthogonalLoop=1;jettySize=auto;html=1;endArrow=none;endFill=0;" parent="1" source="ejbdm7QBQYjt1qYfrLMg-5" target="ejbdm7QBQYjt1qYfrLMg-6" edge="1">
<mxGeometry relative="1" as="geometry">
<mxPoint x="-889.5" y="280" as="sourcePoint"/>
<mxPoint x="-889.5" y="420" as="targetPoint"/>
<Array as="points">
<mxPoint x="-959.5" y="170"/>
</Array>
</mxGeometry>
</mxCell>
<mxCell id="ejbdm7QBQYjt1qYfrLMg-16" style="edgeStyle=orthogonalEdgeStyle;rounded=0;orthogonalLoop=1;jettySize=auto;html=1;endArrow=none;endFill=0;" parent="1" source="ejbdm7QBQYjt1qYfrLMg-6" target="MaOl4jfl0PFDX4A6IsZu-11" edge="1">
<mxGeometry relative="1" as="geometry">
<mxPoint x="-756" y="-140" as="sourcePoint"/>
<mxPoint x="-842" y="180" as="targetPoint"/>
<Array as="points">
<mxPoint x="-820" y="270"/>
<mxPoint x="-820" y="160"/>
</Array>
</mxGeometry>
</mxCell>
<mxCell id="ejbdm7QBQYjt1qYfrLMg-18" value="U" style="text;html=1;align=center;verticalAlign=middle;whiteSpace=wrap;rounded=0;fontStyle=0;fontSize=18;" parent="1" vertex="1">
<mxGeometry x="-772.25" y="130" width="21.5" height="30" as="geometry"/>
</mxCell>
<mxCell id="ejbdm7QBQYjt1qYfrLMg-19" value="D" style="text;html=1;align=center;verticalAlign=middle;whiteSpace=wrap;rounded=0;fontStyle=0;fontSize=18;" parent="1" vertex="1">
<mxGeometry x="-841.38" y="240" width="21.5" height="30" as="geometry"/>
</mxCell>
<mxCell id="ejbdm7QBQYjt1qYfrLMg-20" style="edgeStyle=orthogonalEdgeStyle;rounded=0;orthogonalLoop=1;jettySize=auto;html=1;endArrow=none;endFill=0;" parent="1" source="MaOl4jfl0PFDX4A6IsZu-21" target="ejbdm7QBQYjt1qYfrLMg-5" edge="1">
<mxGeometry relative="1" as="geometry">
<mxPoint x="-1007.5" y="84.57" as="sourcePoint"/>
<mxPoint x="-886.5" y="84.57" as="targetPoint"/>
<Array as="points">
<mxPoint x="-975" y="20"/>
<mxPoint x="-910" y="20"/>
</Array>
</mxGeometry>
</mxCell>
<mxCell id="ejbdm7QBQYjt1qYfrLMg-21" value="U" style="text;html=1;align=center;verticalAlign=middle;whiteSpace=wrap;rounded=0;fontStyle=0;fontSize=18;" parent="1" vertex="1">
<mxGeometry x="-931.5" y="30" width="21.5" height="30" as="geometry"/>
</mxCell>
<mxCell id="ejbdm7QBQYjt1qYfrLMg-22" value="D" style="text;html=1;align=center;verticalAlign=middle;whiteSpace=wrap;rounded=0;fontStyle=0;fontSize=18;" parent="1" vertex="1">
<mxGeometry x="-931.5" y="80" width="21.5" height="30" as="geometry"/>
</mxCell>
<mxCell id="ejbdm7QBQYjt1qYfrLMg-25" value="" style="rounded=1;whiteSpace=wrap;html=1;fontStyle=1;fillColor=#f8cecc;strokeColor=#b85450;" parent="1" vertex="1">
<mxGeometry x="-437.63" y="-350" width="300" height="220" as="geometry"/>
</mxCell>
<mxCell id="ejbdm7QBQYjt1qYfrLMg-26" value="Администратор, Главный менеджер" style="ellipse;whiteSpace=wrap;html=1;" parent="1" vertex="1">
<mxGeometry x="-267.13" y="-340" width="120" height="80" as="geometry"/>
</mxCell>
<mxCell id="ejbdm7QBQYjt1qYfrLMg-27" value="Пользователь" style="ellipse;whiteSpace=wrap;html=1;" parent="1" vertex="1">
<mxGeometry x="-424.51" y="-230" width="120" height="80" as="geometry"/>
</mxCell>
<mxCell id="ejbdm7QBQYjt1qYfrLMg-28" style="edgeStyle=orthogonalEdgeStyle;rounded=0;orthogonalLoop=1;jettySize=auto;html=1;endArrow=none;endFill=0;" parent="1" source="ejbdm7QBQYjt1qYfrLMg-26" target="ejbdm7QBQYjt1qYfrLMg-31" edge="1">
<mxGeometry relative="1" as="geometry">
<mxPoint x="-187.13" y="-180" as="sourcePoint"/>
<mxPoint x="-187.13" y="-40" as="targetPoint"/>
<Array as="points"/>
</mxGeometry>
</mxCell>
<mxCell id="ejbdm7QBQYjt1qYfrLMg-30" value="<span style="font-size: 18px;">Контекст назначения менеджера<br></span>" style="text;html=1;align=center;verticalAlign=middle;whiteSpace=wrap;rounded=0;" parent="1" vertex="1">
<mxGeometry x="-444.26" y="-330" width="149" height="30" as="geometry"/>
</mxCell>
<mxCell id="ejbdm7QBQYjt1qYfrLMg-31" value="Новая роль" style="ellipse;whiteSpace=wrap;html=1;" parent="1" vertex="1">
<mxGeometry x="-267.13" y="-230" width="120" height="80" as="geometry"/>
</mxCell>
<mxCell id="ejbdm7QBQYjt1qYfrLMg-32" style="edgeStyle=orthogonalEdgeStyle;rounded=0;orthogonalLoop=1;jettySize=auto;html=1;endArrow=none;endFill=0;" parent="1" source="ejbdm7QBQYjt1qYfrLMg-27" target="ejbdm7QBQYjt1qYfrLMg-31" edge="1">
<mxGeometry relative="1" as="geometry">
<mxPoint x="-196.63" y="-250" as="sourcePoint"/>
<mxPoint x="-196.63" y="-220" as="targetPoint"/>
<Array as="points"/>
</mxGeometry>
</mxCell>
<mxCell id="ejbdm7QBQYjt1qYfrLMg-34" style="edgeStyle=orthogonalEdgeStyle;rounded=0;orthogonalLoop=1;jettySize=auto;html=1;endArrow=none;endFill=0;" parent="1" source="ejbdm7QBQYjt1qYfrLMg-26" target="MaOl4jfl0PFDX4A6IsZu-11" edge="1">
<mxGeometry relative="1" as="geometry">
<mxPoint x="-407" y="-40" as="sourcePoint"/>
<mxPoint x="-600" y="147" as="targetPoint"/>
<Array as="points">
<mxPoint x="-207" y="-380"/>
<mxPoint x="-630" y="-380"/>
</Array>
</mxGeometry>
</mxCell>
<mxCell id="ejbdm7QBQYjt1qYfrLMg-36" value="U" style="text;html=1;align=center;verticalAlign=middle;whiteSpace=wrap;rounded=0;fontStyle=0;fontSize=18;" parent="1" vertex="1">
<mxGeometry x="-630.63" y="-380" width="21.5" height="30" as="geometry"/>
</mxCell>
<mxCell id="ejbdm7QBQYjt1qYfrLMg-37" value="D" style="text;html=1;align=center;verticalAlign=middle;whiteSpace=wrap;rounded=0;fontStyle=0;fontSize=18;" parent="1" vertex="1">
<mxGeometry x="-228.63" y="-380" width="21.5" height="30" as="geometry"/>
</mxCell>
<mxCell id="ejbdm7QBQYjt1qYfrLMg-38" style="edgeStyle=orthogonalEdgeStyle;rounded=0;orthogonalLoop=1;jettySize=auto;html=1;endArrow=none;endFill=0;" parent="1" source="ejbdm7QBQYjt1qYfrLMg-31" target="MaOl4jfl0PFDX4A6IsZu-9" edge="1">
<mxGeometry relative="1" as="geometry">
<mxPoint x="-415" y="-180" as="sourcePoint"/>
<mxPoint x="-615" y="145" as="targetPoint"/>
<Array as="points">
<mxPoint x="-207" y="150"/>
</Array>
</mxGeometry>
</mxCell>
<mxCell id="ejbdm7QBQYjt1qYfrLMg-39" value="D" style="text;html=1;align=center;verticalAlign=middle;whiteSpace=wrap;rounded=0;fontStyle=0;fontSize=18;" parent="1" vertex="1">
<mxGeometry x="-228.63" y="120" width="21.5" height="30" as="geometry"/>
</mxCell>
<mxCell id="ejbdm7QBQYjt1qYfrLMg-40" value="U" style="text;html=1;align=center;verticalAlign=middle;whiteSpace=wrap;rounded=0;fontStyle=0;fontSize=18;" parent="1" vertex="1">
<mxGeometry x="-228.63" y="-130" width="21.5" height="30" as="geometry"/>
</mxCell>
<mxCell id="ejbdm7QBQYjt1qYfrLMg-41" value="Нужны ли конктексты выделенные красным" style="text;html=1;align=center;verticalAlign=middle;resizable=0;points=[];autosize=1;strokeColor=none;fillColor=none;" parent="1" vertex="1">
<mxGeometry x="-1255" y="-442" width="270" height="30" as="geometry"/>
</mxCell>
<mxCell id="ejbdm7QBQYjt1qYfrLMg-42" style="edgeStyle=orthogonalEdgeStyle;rounded=0;orthogonalLoop=1;jettySize=auto;html=1;endArrow=none;endFill=0;" parent="1" source="ejbdm7QBQYjt1qYfrLMg-27" target="MaOl4jfl0PFDX4A6IsZu-11" edge="1">
<mxGeometry relative="1" as="geometry">
<mxPoint x="-415" y="-180" as="sourcePoint"/>
<mxPoint x="-615" y="145" as="targetPoint"/>
<Array as="points">
<mxPoint x="-615" y="-190"/>
</Array>
</mxGeometry>
</mxCell>
<mxCell id="ejbdm7QBQYjt1qYfrLMg-44" value="U" style="text;html=1;align=center;verticalAlign=middle;whiteSpace=wrap;rounded=0;fontStyle=0;fontSize=18;" parent="1" vertex="1">
<mxGeometry x="-613.32" y="-190" width="21.5" height="30" as="geometry"/>
</mxCell>
<mxCell id="ejbdm7QBQYjt1qYfrLMg-45" value="D" style="text;html=1;align=center;verticalAlign=middle;whiteSpace=wrap;rounded=0;fontStyle=0;fontSize=18;" parent="1" vertex="1">
<mxGeometry x="-459.13" y="-190" width="21.5" height="30" as="geometry"/>
</mxCell>
<mxCell id="ejbdm7QBQYjt1qYfrLMg-49" style="edgeStyle=orthogonalEdgeStyle;rounded=0;orthogonalLoop=1;jettySize=auto;html=1;fontColor=#CCCCCC;strokeColor=#808080;endSize=12;endArrow=blockThin;endFill=1;dashed=1;dashPattern=12 12;" parent="1" source="-3Om5Twb0YCuTLOiDZB2-1" target="IY_3jIdmcAkdkIJxxCQ0-22" edge="1">
<mxGeometry relative="1" as="geometry">
<mxPoint x="-730" y="1370" as="sourcePoint"/>
<mxPoint x="-900" y="873" as="targetPoint"/>
<Array as="points">
<mxPoint x="-290" y="1370"/>
<mxPoint x="-290" y="873"/>
</Array>
</mxGeometry>
</mxCell>
<mxCell id="ejbdm7QBQYjt1qYfrLMg-50" value="<span style="font-size: 12px;">Уведомляет о получении должности менеджера</span>" style="edgeLabel;html=1;align=center;verticalAlign=middle;resizable=0;points=[];" parent="ejbdm7QBQYjt1qYfrLMg-49" vertex="1" connectable="0">
<mxGeometry x="-0.399" y="-2" relative="1" as="geometry">
<mxPoint x="-30" y="-105" as="offset"/>
</mxGeometry>
</mxCell>
<mxCell id="ejbdm7QBQYjt1qYfrLMg-51" value="" style="rounded=1;whiteSpace=wrap;html=1;arcSize=39;fillColor=#1e4074;fontColor=#ffffff;strokeColor=default;strokeWidth=0;" parent="1" vertex="1">
<mxGeometry x="-1096.71" y="1870" width="200" height="110" as="geometry"/>
</mxCell>
<mxCell id="ejbdm7QBQYjt1qYfrLMg-52" value="" style="ellipse;whiteSpace=wrap;html=1;aspect=fixed;fillColor=#1e4074;strokeColor=default;strokeWidth=0;" parent="1" vertex="1">
<mxGeometry x="-1036.71" y="1810" width="80" height="80" as="geometry"/>
</mxCell>
<mxCell id="ejbdm7QBQYjt1qYfrLMg-53" value="" style="rounded=1;whiteSpace=wrap;html=1;arcSize=39;fillColor=#1e4074;fontColor=#ffffff;strokeColor=default;strokeWidth=0;" parent="1" vertex="1">
<mxGeometry x="-502.95" y="1630" width="200" height="110" as="geometry"/>
</mxCell>
<mxCell id="ejbdm7QBQYjt1qYfrLMg-54" value="" style="ellipse;whiteSpace=wrap;html=1;aspect=fixed;fillColor=#1e4074;strokeColor=default;strokeWidth=0;" parent="1" vertex="1">
<mxGeometry x="-442.95" y="1570" width="80" height="80" as="geometry"/>
</mxCell>
<mxCell id="ejbdm7QBQYjt1qYfrLMg-55" value="<font color="#ffffff"><b><font style="font-size: 14px;">Абитуриент</font></b><br>[Person]</font>" style="text;html=1;align=center;verticalAlign=middle;whiteSpace=wrap;rounded=0;" parent="1" vertex="1">
<mxGeometry x="-1026.71" y="1890" width="60" height="30" as="geometry"/>
</mxCell>
<mxCell id="ejbdm7QBQYjt1qYfrLMg-56" value="<font color="#ffffff"><span style="font-size: 14px;"><b>Менеджер</b></span><br>[Person]</font>" style="text;html=1;align=center;verticalAlign=middle;whiteSpace=wrap;rounded=0;" parent="1" vertex="1">
<mxGeometry x="-432.95" y="1650" width="60" height="30" as="geometry"/>
</mxCell>
<mxCell id="ejbdm7QBQYjt1qYfrLMg-57" value="<font color="#cccccc">Абитуриент, который выбирает программу для поступления<br></font>" style="text;html=1;align=center;verticalAlign=middle;whiteSpace=wrap;rounded=0;" parent="1" vertex="1">
<mxGeometry x="-1086.71" y="1940" width="180" height="30" as="geometry"/>
</mxCell>
<mxCell id="ejbdm7QBQYjt1qYfrLMg-58" value="<font color="#cccccc">Менеджер, который рассматривает заявки абитуриентов<br></font>" style="text;html=1;align=center;verticalAlign=middle;whiteSpace=wrap;rounded=0;" parent="1" vertex="1">
<mxGeometry x="-497.95" y="1700" width="190" height="30" as="geometry"/>
</mxCell>
<mxCell id="ejbdm7QBQYjt1qYfrLMg-59" value="<div style="text-align: left;"><b style="background-color: initial;">[Container] Abiturient.tsu system</b></div><font style="font-size: 12px;"><div style="text-align: left;"><span style="background-color: initial;">Diagram short description</span></div></font>" style="text;html=1;align=center;verticalAlign=middle;whiteSpace=wrap;rounded=0;" parent="1" vertex="1">
<mxGeometry x="-1403.32" y="1530" width="200" height="30" as="geometry"/>
</mxCell>
<mxCell id="ejbdm7QBQYjt1qYfrLMg-60" style="edgeStyle=orthogonalEdgeStyle;rounded=0;orthogonalLoop=1;jettySize=auto;html=1;fontColor=#CCCCCC;strokeColor=#808080;endSize=12;endArrow=blockThin;endFill=1;entryX=0.5;entryY=0;entryDx=0;entryDy=0;dashed=1;dashPattern=12 12;" parent="1" source="ejbdm7QBQYjt1qYfrLMg-51" target="ejbdm7QBQYjt1qYfrLMg-62" edge="1">
<mxGeometry relative="1" as="geometry">
<mxPoint x="-980.71" y="2337" as="sourcePoint"/>
<mxPoint x="-996.21" y="2330" as="targetPoint"/>
<Array as="points"/>
</mxGeometry>
</mxCell>
<mxCell id="ejbdm7QBQYjt1qYfrLMg-61" value="<span style="font-size: 12px;">Ознакамливается со списком факультетов <br>и программ обучения, пишет заявления на поступление,&nbsp;<br>используя</span>" style="edgeLabel;html=1;align=center;verticalAlign=middle;resizable=0;points=[];" parent="ejbdm7QBQYjt1qYfrLMg-60" vertex="1" connectable="0">
<mxGeometry x="-0.399" y="-2" relative="1" as="geometry">
<mxPoint x="-2" y="23" as="offset"/>
</mxGeometry>
</mxCell>
<mxCell id="ejbdm7QBQYjt1qYfrLMg-62" value="" style="rounded=0;whiteSpace=wrap;html=1;fillColor=#52a2d8;strokeColor=default;strokeWidth=0;" parent="1" vertex="1">
<mxGeometry x="-1126.3899999999999" y="2135" width="268.81" height="140" as="geometry"/>
</mxCell>
<mxCell id="ejbdm7QBQYjt1qYfrLMg-63" value="<font color="#e6e6e6">Предоставляет весь функционал абитуриента через браузер, единственный способ для него взаимодействия с системой</font>" style="text;html=1;align=center;verticalAlign=middle;whiteSpace=wrap;rounded=0;" parent="1" vertex="1">
<mxGeometry x="-1120.71" y="2224" width="250" height="30" as="geometry"/>
</mxCell>
<mxCell id="ejbdm7QBQYjt1qYfrLMg-64" value="" style="rounded=0;whiteSpace=wrap;html=1;fillColor=#52a2d8;strokeColor=default;strokeWidth=0;" parent="1" vertex="1">
<mxGeometry x="-542.95" y="1895" width="280" height="140" as="geometry"/>
</mxCell>
<mxCell id="ejbdm7QBQYjt1qYfrLMg-65" value="<font color="#ffffff"><span style="font-size: 14px;"><b>Web Application<br></b></span>[Container: C#, HTML and ASP.NET Core MVC]</font>" style="text;html=1;align=center;verticalAlign=middle;whiteSpace=wrap;rounded=0;" parent="1" vertex="1">
<mxGeometry x="-537.95" y="1910" width="270" height="30" as="geometry"/>
</mxCell>
<mxCell id="ejbdm7QBQYjt1qYfrLMg-66" value="<font color="#e6e6e6">Предоставляет весь функционал менеджера через браузер, единственный способ взаимодействия с системой для него</font>" style="text;html=1;align=center;verticalAlign=middle;whiteSpace=wrap;rounded=0;" parent="1" vertex="1">
<mxGeometry x="-527.95" y="1984" width="250" height="30" as="geometry"/>
</mxCell>
<mxCell id="ejbdm7QBQYjt1qYfrLMg-67" style="edgeStyle=orthogonalEdgeStyle;rounded=0;orthogonalLoop=1;jettySize=auto;html=1;fontColor=#CCCCCC;strokeColor=#808080;endSize=12;endArrow=blockThin;endFill=1;dashed=1;dashPattern=12 12;" parent="1" source="ejbdm7QBQYjt1qYfrLMg-53" target="ejbdm7QBQYjt1qYfrLMg-64" edge="1">
<mxGeometry relative="1" as="geometry">
<mxPoint x="-404.66" y="1730" as="sourcePoint"/>
<mxPoint x="-404.66" y="1885" as="targetPoint"/>
<Array as="points"/>
</mxGeometry>
</mxCell>
<mxCell id="ejbdm7QBQYjt1qYfrLMg-68" value="<font style="font-size: 12px;">Просматривает заявления абитуриентов,<br style="border-color: var(--border-color);">изменяет статус заявлений,<br style="border-color: var(--border-color);">управляет факультетом в рамках данной системы,<br style="border-color: var(--border-color);">&nbsp;к примеру, изменяет данные о факультете</font>" style="edgeLabel;html=1;align=center;verticalAlign=middle;resizable=0;points=[];" parent="ejbdm7QBQYjt1qYfrLMg-67" vertex="1" connectable="0">
<mxGeometry x="-0.399" y="-2" relative="1" as="geometry">
<mxPoint x="-2" y="23" as="offset"/>
</mxGeometry>
</mxCell>
<mxCell id="ejbdm7QBQYjt1qYfrLMg-69" value="" style="rounded=0;whiteSpace=wrap;html=1;fillColor=#52a2d8;strokeColor=default;strokeWidth=0;" parent="1" vertex="1">
<mxGeometry x="-1102.95" y="2610" width="250" height="140" as="geometry"/>
</mxCell>
<mxCell id="ejbdm7QBQYjt1qYfrLMg-70" value="<font color="#ffffff"><span style="font-size: 14px;"><b>User Service<br></b></span>[Container: Web-API ASP.NET Core]</font>" style="text;html=1;align=center;verticalAlign=middle;whiteSpace=wrap;rounded=0;" parent="1" vertex="1">
<mxGeometry x="-1092.95" y="2630" width="230" height="30" as="geometry"/>
</mxCell>
<mxCell id="ejbdm7QBQYjt1qYfrLMg-71" value="<font color="#e6e6e6">Предоставляет весь функционал абитуриента через JSON/HTTPS API</font>" style="text;html=1;align=center;verticalAlign=middle;whiteSpace=wrap;rounded=0;" parent="1" vertex="1">
<mxGeometry x="-1102.95" y="2699" width="250" height="30" as="geometry"/>
</mxCell>
<mxCell id="ejbdm7QBQYjt1qYfrLMg-76" value="" style="rounded=1;whiteSpace=wrap;html=1;fillColor=#8b8496;strokeColor=default;strokeWidth=0;" parent="1" vertex="1">
<mxGeometry x="-826.9999999999999" y="1464.91" width="250" height="110" as="geometry"/>
</mxCell>
<mxCell id="ejbdm7QBQYjt1qYfrLMg-77" value="<font color="#ffffff"><span style="font-size: 14px;"><b>Email system<br></b></span>[Software system]</font>" style="text;html=1;align=center;verticalAlign=middle;whiteSpace=wrap;rounded=0;" parent="1" vertex="1">
<mxGeometry x="-756.9999999999999" y="1484.91" width="110" height="30" as="geometry"/>
</mxCell>
<mxCell id="ejbdm7QBQYjt1qYfrLMg-78" value="<font color="#cccccc">Почтовая система Microsoft Exchange<br></font>" style="text;html=1;align=center;verticalAlign=middle;whiteSpace=wrap;rounded=0;" parent="1" vertex="1">
<mxGeometry x="-826.9999999999999" y="1534.91" width="250" height="30" as="geometry"/>
</mxCell>
<mxCell id="ejbdm7QBQYjt1qYfrLMg-79" style="rounded=0;orthogonalLoop=1;jettySize=auto;html=1;fontColor=#CCCCCC;strokeColor=#808080;endSize=12;endArrow=blockThin;endFill=1;dashed=1;dashPattern=12 12;" parent="1" source="ejbdm7QBQYjt1qYfrLMg-84" target="ejbdm7QBQYjt1qYfrLMg-76" edge="1">
<mxGeometry relative="1" as="geometry">
<mxPoint x="-1281.82" y="2170" as="sourcePoint"/>
<mxPoint x="-612.45" y="1830" as="targetPoint"/>
</mxGeometry>
</mxCell>
<mxCell id="ejbdm7QBQYjt1qYfrLMg-80" value="Отправляет уведомления <br>на почту с помощью" style="edgeLabel;html=1;align=center;verticalAlign=middle;resizable=0;points=[];" parent="ejbdm7QBQYjt1qYfrLMg-79" vertex="1" connectable="0">
<mxGeometry x="-0.399" y="-2" relative="1" as="geometry">
<mxPoint x="9" y="-246" as="offset"/>
</mxGeometry>
</mxCell>
<mxCell id="ejbdm7QBQYjt1qYfrLMg-81" style="rounded=0;orthogonalLoop=1;jettySize=auto;html=1;fontColor=#CCCCCC;strokeColor=#808080;endSize=12;endArrow=blockThin;endFill=1;dashed=1;dashPattern=12 12;exitX=0.25;exitY=1;exitDx=0;exitDy=0;" parent="1" source="ejbdm7QBQYjt1qYfrLMg-76" target="ejbdm7QBQYjt1qYfrLMg-51" edge="1">
<mxGeometry relative="1" as="geometry">
<mxPoint x="-438.45" y="2174" as="sourcePoint"/>
<mxPoint x="-208.45" y="1990" as="targetPoint"/>
</mxGeometry>
</mxCell>
<mxCell id="ejbdm7QBQYjt1qYfrLMg-82" value="Отправляет уведомления на почту" style="edgeLabel;html=1;align=center;verticalAlign=middle;resizable=0;points=[];" parent="ejbdm7QBQYjt1qYfrLMg-81" vertex="1" connectable="0">
<mxGeometry x="-0.399" y="-2" relative="1" as="geometry">
<mxPoint x="-24" y="8" as="offset"/>
</mxGeometry>
</mxCell>
<mxCell id="ejbdm7QBQYjt1qYfrLMg-83" value="<font color="#ffffff"><span style="font-size: 14px;"><b>Web Application<br></b></span>[Container: C#, HTML and ASP.NET Core MVC]</font>" style="text;html=1;align=center;verticalAlign=middle;whiteSpace=wrap;rounded=0;" parent="1" vertex="1">
<mxGeometry x="-1129.82" y="2150" width="270" height="30" as="geometry"/>
</mxCell>
<mxCell id="ejbdm7QBQYjt1qYfrLMg-84" value="" style="rounded=0;whiteSpace=wrap;html=1;fillColor=#52a2d8;strokeColor=default;strokeWidth=0;" parent="1" vertex="1">
<mxGeometry x="-831.8199999999999" y="2610" width="250" height="140" as="geometry"/>
</mxCell>
<mxCell id="ejbdm7QBQYjt1qYfrLMg-85" value="<font color="#ffffff"><span style="font-size: 14px;"><b>Notification Service<br></b></span>[Container: Web-API ASP.NET Core]</font>" style="text;html=1;align=center;verticalAlign=middle;whiteSpace=wrap;rounded=0;" parent="1" vertex="1">
<mxGeometry x="-821.8199999999999" y="2630" width="230" height="30" as="geometry"/>
</mxCell>
<mxCell id="ejbdm7QBQYjt1qYfrLMg-86" value="<font color="#e6e6e6">Предоставляет весь функционал абитуриента через JSON/HTTPS API</font>" style="text;html=1;align=center;verticalAlign=middle;whiteSpace=wrap;rounded=0;" parent="1" vertex="1">
<mxGeometry x="-831.8199999999999" y="2699" width="250" height="30" as="geometry"/>
</mxCell>
<mxCell id="ejbdm7QBQYjt1qYfrLMg-87" value="" style="rounded=0;whiteSpace=wrap;html=1;fillColor=#52a2d8;strokeColor=default;strokeWidth=0;" parent="1" vertex="1">
<mxGeometry x="-1365.32" y="2470" width="250" height="140" as="geometry"/>
</mxCell>
<mxCell id="ejbdm7QBQYjt1qYfrLMg-88" value="<font color="#ffffff"><span style="font-size: 14px;"><b>Document Service<br></b></span>[Container: Web-API ASP.NET Core]</font>" style="text;html=1;align=center;verticalAlign=middle;whiteSpace=wrap;rounded=0;" parent="1" vertex="1">
<mxGeometry x="-1355.32" y="2490" width="230" height="30" as="geometry"/>
</mxCell>
<mxCell id="ejbdm7QBQYjt1qYfrLMg-89" value="<font color="#e6e6e6">Предоставляет весь функционал абитуриента через JSON/HTTPS API</font>" style="text;html=1;align=center;verticalAlign=middle;whiteSpace=wrap;rounded=0;" parent="1" vertex="1">
<mxGeometry x="-1365.32" y="2559" width="250" height="30" as="geometry"/>
</mxCell>
<mxCell id="ejbdm7QBQYjt1qYfrLMg-90" value="" style="rounded=0;whiteSpace=wrap;html=1;fillColor=#52a2d8;strokeColor=default;strokeWidth=0;" parent="1" vertex="1">
<mxGeometry x="-561.8199999999999" y="2610" width="250" height="140" as="geometry"/>
</mxCell>
<mxCell id="ejbdm7QBQYjt1qYfrLMg-91" value="<font color="#ffffff"><span style="font-size: 14px;"><b>Application Service<br></b></span>[Container: Web-API ASP.NET Core]</font>" style="text;html=1;align=center;verticalAlign=middle;whiteSpace=wrap;rounded=0;" parent="1" vertex="1">
<mxGeometry x="-551.8199999999999" y="2630" width="230" height="30" as="geometry"/>
</mxCell>
<mxCell id="ejbdm7QBQYjt1qYfrLMg-92" value="<font color="#e6e6e6">Предоставляет весь функционал абитуриента через JSON/HTTPS API</font>" style="text;html=1;align=center;verticalAlign=middle;whiteSpace=wrap;rounded=0;" parent="1" vertex="1">
<mxGeometry x="-561.8199999999999" y="2699" width="250" height="30" as="geometry"/>
</mxCell>
<mxCell id="ejbdm7QBQYjt1qYfrLMg-93" value="" style="rounded=0;whiteSpace=wrap;html=1;fillColor=#52a2d8;strokeColor=default;strokeWidth=0;" parent="1" vertex="1">
<mxGeometry x="-831.8199999999999" y="2783" width="250" height="140" as="geometry"/>
</mxCell>
<mxCell id="ejbdm7QBQYjt1qYfrLMg-94" value="<font color="#ffffff"><span style="font-size: 14px;"><b>Faculty Info Service<br></b></span>[Container: Web-API ASP.NET Core]</font>" style="text;html=1;align=center;verticalAlign=middle;whiteSpace=wrap;rounded=0;" parent="1" vertex="1">
<mxGeometry x="-821.8199999999999" y="2803" width="230" height="30" as="geometry"/>
</mxCell>
<mxCell id="ejbdm7QBQYjt1qYfrLMg-95" value="<font color="#e6e6e6">Предоставляет весь функционал абитуриента через JSON/HTTPS API</font>" style="text;html=1;align=center;verticalAlign=middle;whiteSpace=wrap;rounded=0;" parent="1" vertex="1">
<mxGeometry x="-831.8199999999999" y="2872" width="250" height="30" as="geometry"/>
</mxCell>
<mxCell id="ejbdm7QBQYjt1qYfrLMg-96" style="rounded=0;orthogonalLoop=1;jettySize=auto;html=1;fontColor=#CCCCCC;strokeColor=#808080;endSize=12;endArrow=blockThin;endFill=1;dashed=1;dashPattern=12 12;" parent="1" source="ejbdm7QBQYjt1qYfrLMg-64" target="ejbdm7QBQYjt1qYfrLMg-126" edge="1">
<mxGeometry relative="1" as="geometry">
<mxPoint x="-291.82" y="2025" as="sourcePoint"/>
<mxPoint x="-390" y="2300" as="targetPoint"/>
</mxGeometry>
</mxCell>
<mxCell id="ejbdm7QBQYjt1qYfrLMg-97" value="Делает запросы к API используя JSON/HTTPS" style="edgeLabel;html=1;align=center;verticalAlign=middle;resizable=0;points=[];" parent="ejbdm7QBQYjt1qYfrLMg-96" vertex="1" connectable="0">
<mxGeometry x="-0.0875" y="-2" relative="1" as="geometry">
<mxPoint x="-19" y="-13" as="offset"/>
</mxGeometry>
</mxCell>
<mxCell id="ejbdm7QBQYjt1qYfrLMg-98" style="rounded=0;orthogonalLoop=1;jettySize=auto;html=1;fontColor=#CCCCCC;strokeColor=#808080;endSize=12;endArrow=blockThin;endFill=1;dashed=1;dashPattern=12 12;" parent="1" source="ejbdm7QBQYjt1qYfrLMg-62" target="ejbdm7QBQYjt1qYfrLMg-126" edge="1">
<mxGeometry relative="1" as="geometry">
<mxPoint x="-1040.57" y="2035" as="sourcePoint"/>
<mxPoint x="-905.5699999999999" y="2560" as="targetPoint"/>
</mxGeometry>
</mxCell>
<mxCell id="ejbdm7QBQYjt1qYfrLMg-117" value="Делает запросы к API используя JSON/HTTPS" style="edgeLabel;html=1;align=center;verticalAlign=middle;resizable=0;points=[];" parent="ejbdm7QBQYjt1qYfrLMg-98" vertex="1" connectable="0">
<mxGeometry x="-0.7537" y="3" relative="1" as="geometry">
<mxPoint x="-50" y="-15" as="offset"/>
</mxGeometry>
</mxCell>
<mxCell id="ejbdm7QBQYjt1qYfrLMg-100" value="" style="rounded=0;whiteSpace=wrap;html=1;fillColor=#52a2d8;strokeColor=default;strokeWidth=0;" parent="1" vertex="1">
<mxGeometry x="-301.82" y="2470" width="250" height="140" as="geometry"/>
</mxCell>
<mxCell id="ejbdm7QBQYjt1qYfrLMg-101" value="<font color="#ffffff"><span style="font-size: 14px;"><b>Managers Document Service<br></b></span>[Container: Web-API ASP.NET Core]</font>" style="text;html=1;align=center;verticalAlign=middle;whiteSpace=wrap;rounded=0;" parent="1" vertex="1">
<mxGeometry x="-291.82" y="2490" width="230" height="30" as="geometry"/>
</mxCell>
<mxCell id="ejbdm7QBQYjt1qYfrLMg-102" value="<font color="#e6e6e6">Предоставляет весь функционал абитуриента через JSON/HTTPS API</font>" style="text;html=1;align=center;verticalAlign=middle;whiteSpace=wrap;rounded=0;" parent="1" vertex="1">
<mxGeometry x="-301.82" y="2559" width="250" height="30" as="geometry"/>
</mxCell>
<mxCell id="ejbdm7QBQYjt1qYfrLMg-109" style="rounded=0;orthogonalLoop=1;jettySize=auto;html=1;fontColor=#CCCCCC;strokeColor=#808080;endSize=12;endArrow=blockThin;endFill=1;dashed=1;dashPattern=12 12;" parent="1" source="ejbdm7QBQYjt1qYfrLMg-76" target="ejbdm7QBQYjt1qYfrLMg-53" edge="1">
<mxGeometry relative="1" as="geometry">
<mxPoint x="-763.8199999999999" y="1702" as="sourcePoint"/>
<mxPoint x="-933.8199999999999" y="1880" as="targetPoint"/>
</mxGeometry>
</mxCell>
<mxCell id="ejbdm7QBQYjt1qYfrLMg-110" value="Отправляет уведомления на почту" style="edgeLabel;html=1;align=center;verticalAlign=middle;resizable=0;points=[];" parent="ejbdm7QBQYjt1qYfrLMg-109" vertex="1" connectable="0">
<mxGeometry x="-0.399" y="-2" relative="1" as="geometry">
<mxPoint x="21" y="7" as="offset"/>
</mxGeometry>
</mxCell>
<mxCell id="ejbdm7QBQYjt1qYfrLMg-113" value="" style="rounded=0;whiteSpace=wrap;html=1;fillColor=#52a2d8;strokeColor=default;strokeWidth=0;" parent="1" vertex="1">
<mxGeometry x="-39.99999999999999" y="2330" width="250" height="140" as="geometry"/>
</mxCell>
<mxCell id="ejbdm7QBQYjt1qYfrLMg-114" value="<font color="#ffffff"><span style="font-size: 14px;"><b>Giving-roles Service<br></b></span>[Container: Web-API ASP.NET Core]</font>" style="text;html=1;align=center;verticalAlign=middle;whiteSpace=wrap;rounded=0;" parent="1" vertex="1">
<mxGeometry x="-29.999999999999993" y="2350" width="230" height="30" as="geometry"/>
</mxCell>
<mxCell id="ejbdm7QBQYjt1qYfrLMg-115" value="<font color="#e6e6e6">Предоставляет весь функционал абитуриента через JSON/HTTPS API</font>" style="text;html=1;align=center;verticalAlign=middle;whiteSpace=wrap;rounded=0;" parent="1" vertex="1">
<mxGeometry x="-39.99999999999999" y="2419" width="250" height="30" as="geometry"/>
</mxCell>
<mxCell id="ejbdm7QBQYjt1qYfrLMg-118" style="rounded=0;orthogonalLoop=1;jettySize=auto;html=1;fontColor=#CCCCCC;strokeColor=#808080;endSize=12;endArrow=blockThin;endFill=1;dashed=1;dashPattern=12 12;" parent="1" source="ejbdm7QBQYjt1qYfrLMg-64" target="ejbdm7QBQYjt1qYfrLMg-100" edge="1">
<mxGeometry relative="1" as="geometry">
<mxPoint x="-396" y="2045" as="sourcePoint"/>
<mxPoint x="-424" y="2620" as="targetPoint"/>
</mxGeometry>
</mxCell>
<mxCell id="ejbdm7QBQYjt1qYfrLMg-120" value="Показать что разные менеджеры могут пользоваться одним и тем же приложением, но с дополнительными возможностями" style="text;html=1;align=center;verticalAlign=middle;whiteSpace=wrap;rounded=0;" parent="1" vertex="1">
<mxGeometry x="90" y="1960" width="330" height="30" as="geometry"/>
</mxCell>
<mxCell id="ejbdm7QBQYjt1qYfrLMg-121" style="rounded=0;orthogonalLoop=1;jettySize=auto;html=1;fontColor=#CCCCCC;strokeColor=#d79b00;endSize=12;endArrow=blockThin;endFill=1;dashed=1;dashPattern=12 12;fillColor=#ffe6cc;" parent="1" source="ejbdm7QBQYjt1qYfrLMg-64" target="ejbdm7QBQYjt1qYfrLMg-113" edge="1">
<mxGeometry relative="1" as="geometry">
<mxPoint x="-5" y="1792" as="sourcePoint"/>
<mxPoint x="-253" y="1909" as="targetPoint"/>
</mxGeometry>
</mxCell>
<mxCell id="ejbdm7QBQYjt1qYfrLMg-123" style="rounded=0;orthogonalLoop=1;jettySize=auto;html=1;fontColor=#CCCCCC;strokeColor=#808080;endSize=12;endArrow=blockThin;endFill=1;dashed=1;dashPattern=12 12;" parent="1" source="ejbdm7QBQYjt1qYfrLMg-62" target="ejbdm7QBQYjt1qYfrLMg-87" edge="1">
<mxGeometry relative="1" as="geometry">
<mxPoint x="-980" y="2285" as="sourcePoint"/>
<mxPoint x="-970" y="2620" as="targetPoint"/>
</mxGeometry>
</mxCell>
<mxCell id="ejbdm7QBQYjt1qYfrLMg-124" style="rounded=0;orthogonalLoop=1;jettySize=auto;html=1;fontColor=#CCCCCC;strokeColor=#808080;endSize=12;endArrow=blockThin;endFill=1;dashed=1;dashPattern=12 12;" parent="1" source="ejbdm7QBQYjt1qYfrLMg-76" target="MaOl4jfl0PFDX4A6IsZu-251" edge="1">
<mxGeometry relative="1" as="geometry">
<mxPoint x="-592" y="1585" as="sourcePoint"/>
<mxPoint x="-493" y="1640" as="targetPoint"/>
<Array as="points">
<mxPoint x="-260" y="1550"/>
</Array>
</mxGeometry>
</mxCell>
<mxCell id="ejbdm7QBQYjt1qYfrLMg-125" value="Отправляет уведомления на почту" style="edgeLabel;html=1;align=center;verticalAlign=middle;resizable=0;points=[];" parent="ejbdm7QBQYjt1qYfrLMg-124" vertex="1" connectable="0">
<mxGeometry x="-0.399" y="-2" relative="1" as="geometry">
<mxPoint x="69" y="-8" as="offset"/>
</mxGeometry>
</mxCell>
<mxCell id="ejbdm7QBQYjt1qYfrLMg-127" value="Чтобы избежать множественного пересечения стрелок, сделал такую сферу, которая означает что любой сервис из этой сферы доступен тому кто к этой сфере провел стрелку, потому что это базовые возможности всех авторизованных пользователей системы" style="text;html=1;align=center;verticalAlign=middle;whiteSpace=wrap;rounded=0;" parent="1" vertex="1">
<mxGeometry x="-418.63000000000005" y="2920" width="347.95" height="30" as="geometry"/>
</mxCell>
<mxCell id="ejbdm7QBQYjt1qYfrLMg-129" value="<b style="font-weight:normal;" id="docs-internal-guid-5b36b442-7fff-c8b9-8f83-1f48a23372ef"><img width="203px;" height="234px;" src="https://lh7-us.googleusercontent.com/JxQBm1-EpwM_dFHXwClX45VhrDido1cOvyLPQnoqPaI8YXl2qh07tTlEx8l0MKRIusiFAP7jSpTK8y7_XbA77AthvYhiPHg3ViRl7vc-WYO56VqhmxlTWo8SbmznH5HDqeRaKHJ4aV-dhPcUNcOod0d_ZQ=s2048"></b>" style="text;whiteSpace=wrap;html=1;" parent="1" vertex="1">
<mxGeometry x="-1750" y="1895" width="240" height="260" as="geometry"/>
</mxCell>
</root>
</mxGraphModel>
</diagram>
</mxfile>
